<svg width="64" height="64" viewBox="0 0 64 64" fill="none" xmlns="http://www.w3.org/2000/svg">
<path d="M0.00332432 59.3886C0.00332432 60.6563 0.442135 61.7534 1.31976 62.6798C2.19738 63.6063 3.27002 64.0451 4.5377 63.9963H36.5709V63.1918C33.8405 62.2654 31.6221 60.6076 29.9156 58.2184C28.2091 55.8292 27.3802 53.1718 27.429 50.2463C27.429 47.1744 28.331 44.4439 30.135 42.0547C31.939 39.6655 34.2793 38.0565 37.1559 37.2276C37.741 35.3747 38.6674 33.7169 39.9351 32.2542C41.2028 30.7914 42.7386 29.6455 44.5426 28.8166C45.3227 26.72 45.7128 24.7209 45.7128 22.8193V18.2847C45.7128 13.2137 43.9088 8.89854 40.3008 5.33912C36.6928 1.77971 32.4022 0 27.429 0C22.4558 0 18.1408 1.77971 14.4841 5.33912C10.8273 8.89854 9.0477 13.2137 9.14521 18.2847V22.8193C9.14521 26.0374 9.92532 29.0117 11.4855 31.7422C13.0457 34.4727 15.1667 36.6912 17.8483 38.3978C15.5567 39.2267 13.3383 40.3725 11.193 41.8353C9.0477 43.2981 7.14618 44.9315 5.48845 46.7356C3.83073 48.5397 2.48992 50.5388 1.46603 52.733C0.442134 54.9271 -0.0454324 57.1457 0.00332432 59.3886ZM36.5709 50.2463C36.5709 51.514 37.0097 52.6111 37.8873 53.5375C38.7649 54.4639 39.8376 54.9028 41.1052 54.854H45.7128V59.3886C45.7128 60.7051 46.1516 61.8022 47.0292 62.6798C47.9068 63.5575 48.9794 63.9963 50.2471 63.9963C51.5148 63.9963 52.5874 63.5575 53.4651 62.6798C54.3427 61.8022 54.8059 60.7051 54.8546 59.3886V54.854H59.389C60.6567 54.854 61.7293 54.4152 62.607 53.5375C63.4846 52.6598 63.9478 51.5628 63.9965 50.2463C64.0453 48.9298 63.5821 47.8571 62.607 47.0282C61.6318 46.1993 60.5592 45.7604 59.389 45.7117H54.8546V41.1039C54.8546 39.8362 54.3914 38.7635 53.4651 37.8858C52.5387 37.0082 51.466 36.5693 50.2471 36.5693C49.0282 36.5693 47.9556 37.0082 47.0292 37.8858C46.1028 38.7635 45.664 39.8362 45.7128 41.1039V45.7117H41.1052C39.8376 45.7117 38.7649 46.1505 37.8873 47.0282C37.0097 47.9058 36.5709 48.9785 36.5709 50.2463Z" fill="white"/>
</svg>
