<svg width="903" height="903" viewBox="0 0 903 903" fill="none" xmlns="http://www.w3.org/2000/svg">
<rect width="903" height="903" fill="#BD8538"/>
<rect width="903" height="903" fill="url(#paint0_linear_4312_58)" fill-opacity="0.2"/>
<path d="M779.419 69.711C783.072 62.5487 782.321 53.5047 777.466 46.32L713.43 -48.4552C708.575 -55.6399 700.465 -59.7114 692.47 -58.9757L611.124 -51.5953L554.998 -134.664C550.143 -141.848 542.033 -145.92 534.038 -145.184L439.641 -136.62C433.002 -136.028 427.294 -132.171 424.267 -126.232L385.923 -51.2787L302.075 -43.6713C295.436 -43.0792 289.728 -39.2228 286.702 -33.284L248.357 41.6697L164.509 49.2771C157.87 49.8693 152.162 53.7257 149.136 59.6644L110.787 134.621L26.9395 142.228C20.3003 142.82 14.5927 146.677 11.5661 152.615L-26.7784 227.569L-110.626 235.177C-117.266 235.769 -122.973 239.625 -126 245.564L-164.344 320.518L-248.196 328.128C-254.835 328.72 -260.543 332.576 -263.569 338.515L-306.738 422.899C-310.404 430.042 -309.653 439.086 -304.798 446.27L-248.67 529.341L-285.871 602.058C-289.536 609.201 -288.785 618.245 -283.931 625.43L-219.894 720.205C-215.04 727.389 -206.929 731.461 -198.921 730.745L-117.574 723.363L-69.3674 794.709L-106.569 867.428C-110.235 874.571 -109.484 883.615 -104.63 890.799L-40.5933 985.575C-35.7389 992.759 -27.6283 996.831 -19.6204 996.114L61.7273 988.733L109.934 1060.08L72.7316 1132.8C69.0659 1139.94 69.817 1148.98 74.6715 1156.17L138.708 1250.94C143.562 1258.13 151.673 1262.2 159.681 1261.48L241.028 1254.1L297.143 1337.15C301.998 1344.34 310.108 1348.41 318.116 1347.69L412.513 1339.13C415.818 1338.83 418.913 1337.7 421.545 1335.93C424.177 1334.15 426.376 1331.7 427.887 1328.74L466.231 1253.79L550.079 1246.18C553.383 1245.88 556.479 1244.76 559.111 1242.98C561.742 1241.2 563.941 1238.75 565.452 1235.79L603.797 1160.84L687.645 1153.23C690.949 1152.93 694.045 1151.81 696.676 1150.03C699.308 1148.25 701.507 1145.8 703.018 1142.84L741.365 1067.89L825.213 1060.28C828.517 1059.98 831.613 1058.86 834.244 1057.08C836.876 1055.3 839.075 1052.85 840.586 1049.9L878.931 974.941L962.778 967.334C966.083 967.034 969.178 965.909 971.81 964.131C974.442 962.353 976.641 959.9 978.152 956.947L1016.5 881.993L1100.34 874.386C1103.65 874.086 1106.74 872.961 1109.38 871.182C1112.01 869.404 1114.21 866.952 1115.72 863.998L1158.89 779.614C1162.54 772.452 1161.79 763.408 1156.93 756.223L1100.82 673.172L1138.02 600.454C1141.67 593.292 1140.92 584.248 1136.07 577.063L1072.03 482.288C1067.18 475.103 1059.07 471.032 1051.07 471.767L969.728 479.146L921.522 407.8L958.724 335.082C962.376 327.919 961.625 318.875 956.771 311.691L892.734 216.915C887.88 209.731 879.769 205.659 871.774 206.395L790.427 213.777L742.22 142.43L779.419 69.711ZM171.084 335.069L203.46 271.778L274.259 265.354L322.459 336.692L290.083 399.982L219.284 406.407L171.084 335.069ZM446.219 149.169L478.597 85.881L549.396 79.4564L597.596 150.794L565.218 214.082L494.42 220.507L446.219 149.169ZM487.952 507.489L520.33 444.201L591.129 437.776L639.329 509.114L606.952 572.402L536.153 578.827L487.952 507.489ZM350.385 600.438L382.761 537.148L453.56 530.724L501.76 602.062L469.384 665.352L398.585 671.776L350.385 600.438ZM212.819 693.387L245.197 630.099L315.995 623.674L364.196 695.012L331.818 758.3L261.02 764.725L212.819 693.387ZM586.084 393.243L515.285 399.668L467.085 328.329L499.463 265.041L570.261 258.617L618.462 329.955L586.084 393.243ZM480.893 422.902L448.515 486.19L377.716 492.615L329.516 421.277L361.893 357.989L432.692 351.564L480.893 422.902ZM343.325 515.852L310.947 579.14L240.148 585.565L191.948 514.227L224.326 450.939L295.124 444.514L343.325 515.852ZM205.759 608.801L173.381 672.089L102.583 678.513L54.382 607.175L86.7599 543.887L157.558 537.463L205.759 608.801ZM233.685 872.547L266.062 809.259L336.861 802.835L385.061 874.173L352.684 937.461L281.885 943.885L233.685 872.547ZM419.451 850.933L371.251 779.595L403.629 716.307L474.427 709.883L522.628 781.221L490.25 844.509L419.451 850.933ZM508.82 686.648L541.198 623.36L611.996 616.935L660.197 688.273L627.819 751.561L557.021 757.986L508.82 686.648ZM646.386 593.699L678.764 530.411L749.562 523.987L797.763 595.325L765.385 658.613L694.587 665.037L646.386 593.699ZM75.2511 786.336L107.629 723.048L178.427 716.624L226.628 787.962L194.25 851.25L123.452 857.674L75.2511 786.336ZM744.517 479.454L673.719 485.878L625.518 414.54L657.896 351.252L728.695 344.828L776.895 416.166L744.517 479.454ZM460.025 243.743L427.647 307.031L356.849 313.456L308.648 242.118L341.026 178.83L411.824 172.405L460.025 243.743ZM184.891 429.641L152.513 492.93L81.715 499.354L33.5144 428.016L65.8923 364.728L136.691 358.303L184.891 429.641ZM47.3236 522.591L14.9457 585.879L-55.8527 592.304L-104.053 520.966L-71.6755 457.678L-0.877039 451.253L47.3236 522.591ZM254.552 1051.71L286.93 988.418L357.729 981.994L405.929 1053.33L373.551 1116.62L302.753 1123.04L254.552 1051.71ZM392.12 958.756L424.498 895.468L495.296 889.044L543.497 960.382L511.119 1023.67L440.321 1030.09L392.12 958.756ZM529.686 865.808L562.064 802.52L632.862 796.095L681.063 867.433L648.685 930.721L577.886 937.146L529.686 865.808ZM667.254 772.858L699.631 709.57L770.43 703.146L818.63 774.484L786.253 837.772L715.454 844.196L667.254 772.858ZM804.821 679.909L837.199 616.621L907.998 610.196L956.198 681.534L923.82 744.822L853.022 751.247L804.821 679.909ZM-50.8079 636.837L19.9906 630.412L68.1912 701.75L35.8133 765.038L-34.9851 771.463L-83.1857 700.125L-50.8079 636.837ZM128.493 902.207L199.292 895.782L247.492 967.12L215.114 1030.41L144.316 1036.83L96.1153 965.495L128.493 902.207ZM935.327 502.374L902.949 565.662L832.151 572.087L783.95 500.749L816.328 437.461L887.127 431.036L935.327 502.374ZM756.026 237.004L723.648 300.292L652.85 306.717L604.649 235.379L637.027 172.091L707.826 165.666L756.026 237.004ZM735.16 57.8439L702.783 121.132L631.984 127.557L583.784 56.2185L616.165 -7.08123L686.951 -13.5035L735.159 57.8452L735.16 57.8439ZM457.722 -93.2888L528.521 -99.7134L576.727 -28.3668L544.349 34.9212L473.551 41.3458L425.344 -30.0008L457.722 -93.2888ZM320.154 -0.339058L390.953 -6.76366L439.159 64.5829L406.781 127.871L335.983 134.296L287.777 62.949L320.154 -0.339058ZM182.587 92.6107L253.385 86.1861L301.591 157.533L269.214 220.821L198.415 227.245L150.209 155.899L182.587 92.6107ZM45.0208 185.559L115.819 179.134L164.026 250.481L131.648 313.769L60.8494 320.194L12.6429 248.847L45.0208 185.559ZM-92.547 278.509L-21.7485 272.084L26.4579 343.431L-5.91996 406.719L-76.7184 413.143L-124.925 341.797L-92.547 278.509ZM-262.491 434.745L-230.113 371.457L-159.314 365.033L-111.108 436.379L-143.486 499.667L-214.284 506.092L-262.491 434.745ZM-241.625 613.906L-209.254 550.629L-138.443 544.205L-90.2428 615.543L-122.621 678.831L-193.419 685.256L-241.627 613.907L-241.625 613.906ZM-62.3239 879.275L-29.9529 815.998L40.8577 809.575L89.0583 880.913L56.6805 944.201L-14.118 950.626L-62.3259 879.277L-62.3239 879.275ZM116.979 1144.65L149.35 1081.37L220.16 1074.95L268.361 1146.28L235.983 1209.57L165.185 1215.99L116.979 1144.65ZM394.417 1295.78L323.618 1302.2L275.418 1230.87L307.796 1167.58L378.594 1161.15L426.795 1232.49L394.417 1295.78ZM531.985 1202.83L461.186 1209.25L412.986 1137.92L445.363 1074.63L516.162 1068.2L564.363 1139.54L531.985 1202.83ZM669.552 1109.88L598.754 1116.31L550.553 1044.97L582.931 981.679L653.73 975.255L701.93 1046.59L669.552 1109.88ZM807.118 1016.93L736.32 1023.36L688.119 952.019L720.497 888.731L791.296 882.306L839.496 953.644L807.118 1016.93ZM944.686 923.982L873.888 930.407L825.687 859.069L858.065 795.781L928.863 789.356L977.064 860.694L944.686 923.982ZM1082.25 831.033L1011.46 837.457L963.255 766.119L995.633 702.831L1066.43 696.407L1114.63 767.745L1082.25 831.033ZM1093.76 588.586L1061.39 651.874L990.588 658.298L942.387 586.96L974.768 523.66L1045.55 517.238L1093.76 588.587L1093.76 588.586ZM914.462 323.214L882.084 386.502L811.285 392.926L763.086 321.59L795.467 258.291L866.253 251.868L914.46 323.215L914.462 323.214Z" fill="#C99230"/>
<defs>
<linearGradient id="paint0_linear_4312_58" x1="451.5" y1="0" x2="451.5" y2="903" gradientUnits="userSpaceOnUse">
<stop stop-opacity="0"/>
<stop offset="0.0001" stop-color="#FFC712"/>
<stop offset="1"/>
</linearGradient>
</defs>
</svg>
