<svg width="64" height="64" viewBox="0 0 64 64" fill="none" xmlns="http://www.w3.org/2000/svg">
<path d="M59.3347 34.5085C60.8099 35.3218 62.708 34.8576 63.5737 33.4719C64.4393 32.0863 63.9449 30.3043 62.4693 29.4915L59.3347 34.5085ZM9.05842 3.43813L7.45983 5.92963L7.49097 5.94677L9.05842 3.43813ZM3.14017 7.14168L0.0761366 7.56807C0.106451 7.76004 0.157124 7.94867 0.227458 8.13117L3.14017 7.14168ZM9.80488 32.9895C10.3868 34.5 12.1627 35.2814 13.7713 34.735C15.38 34.1886 16.2123 32.521 15.6303 31.0105L9.80488 32.9895ZM62.4693 34.5085C63.9449 33.6957 64.4393 31.9137 63.5737 30.5281C62.708 29.1428 60.8099 28.6786 59.3347 29.4915L62.4693 34.5085ZM9.05842 60.5621L7.49085 58.053L7.45996 58.0705L9.05842 60.5621ZM3.14017 56.8586L0.227458 55.8689C0.157124 56.0516 0.106451 56.24 0.0761366 56.432L3.14017 56.8586ZM15.6303 32.9895C16.2123 31.479 15.38 29.8114 13.7713 29.265C12.1627 28.7186 10.3868 29.5 9.80488 31.0105L15.6303 32.9895ZM60.902 34.9087C62.6126 34.9087 63.9995 33.6065 63.9995 32.0002C63.9995 30.3935 62.6126 29.0917 60.902 29.0917V34.9087ZM12.7176 29.0917C11.0069 29.0917 9.6201 30.3935 9.6201 32.0002C9.6201 33.6065 11.0069 34.9087 12.7176 34.9087V29.0917ZM62.4693 29.4915L10.6259 0.929492L7.49097 5.94677L59.3347 34.5085L62.4693 29.4915ZM10.6569 0.946788C8.32651 -0.371559 5.39522 -0.308773 3.13129 1.10796L6.56677 5.94859C6.83546 5.78044 7.18325 5.77315 7.45983 5.92963L10.6569 0.946788ZM3.13129 1.10796C0.867316 2.52469 -0.322695 5.04097 0.0761366 7.56807L6.2042 6.71529C6.15687 6.41536 6.29807 6.11675 6.56677 5.94859L3.13129 1.10796ZM0.227458 8.13117L9.80488 32.9895L15.6303 31.0105L6.05291 6.15219L0.227458 8.13117ZM59.3347 29.4915L7.49085 58.053L10.6259 63.0705L62.4693 34.5085L59.3347 29.4915ZM7.45996 58.0705C7.18337 58.2271 6.83546 58.2198 6.56677 58.0515L3.13125 62.8921C5.39522 64.3087 8.32651 64.3715 10.6569 63.0534L7.45996 58.0705ZM6.56677 58.0515C6.29807 57.8835 6.15687 57.5845 6.2042 57.2848L0.0761366 56.432C-0.322695 58.9589 0.867316 61.4754 3.13125 62.8921L6.56677 58.0515ZM6.05291 57.8479L15.6303 32.9895L9.80488 31.0105L0.227458 55.8689L6.05291 57.8479ZM60.902 29.0917H12.7176V34.9087H60.902V29.0917Z" fill="#D9D9D9"/>
</svg>
